<?xml version="1.0" encoding="utf-8"?>

<!DOCTYPE svg PUBLIC "-//W3C//DTD SVG 1.1//EN" "http://www.w3.org/Graphics/SVG/1.1/DTD/svg11.dtd">
<svg version="1.1" id="Layer_1" xmlns="http://www.w3.org/2000/svg" xmlns:xlink="http://www.w3.org/1999/xlink" x="0px" y="0px"
	 viewBox="0 0 343 304" enable-background="new 0 0 343 304" xml:space="preserve">
<g>
	<path fill="#FE98DA" d="M47.67,9.7c2.19-2.66,6.11-1.69,8.48,0.19c8.11,5.92,17.51,9.67,26.02,14.94
		c6.7,4.14,13.86,7.87,19.32,13.66c4.97,5.24,4.51,12.96,5.68,19.6c6.37-1.2,12.39-3.78,18.73-5.13c21.23-5.45,43.4-5.92,65.18-4.78
		c16.44,1.27,32.86,4.02,48.53,9.24c1.88,0.65,3.84,0.99,5.81,1.24c0.46-5.31,0.26-10.83,2.32-15.84c1.54-4.09,4.33-7.68,7.96-10.12
		c14.84-8.96,30.97-15.4,46.96-21.97c2.08-0.69,4.83-1.92,6.73-0.17c3.27,3.23,3.47,8.14,4.82,12.29c2.21,7,3.13,14.3,4.46,21.5
		c1.2,7.51,1.95,15.11,1.66,22.72c-0.12,5.79-3.35,10.98-7.02,15.25c-4.06,4.76-9.54,7.89-14.28,11.88
		c3.79,6.05,8.64,11.4,12.05,17.72c11.66,20.17,16.79,43.85,16.17,67.04c-0.39,16.34-5.58,32.07-12.75,46.61
		c-12.83,23.95-34.05,42.96-58.61,54.36c-7.13,3.64-14.94,5.71-22.11,9.25c3.19,4.98,8.82,8.01,11.24,13.53
		c-13,0.45-26.01-0.13-39.01,0.12c-5.68,0.18-11.33-0.62-17-0.66c-22.67,0.11-45.34,0.14-68.01,0.02
		c-6.98-0.05-13.98,0.25-20.95-0.29c2.13-5.47,7.31-8.74,10.07-13.76c-14.2-4.92-28.08-11.13-40.34-19.92
		c-14.8-10.75-27.91-24.44-36.14-40.9c-20.62-39.44-16-90.89,12.09-125.57c2.08-2.79,5.05-5.02,6.23-8.39
		c-8.54-5.61-16.4-13.48-18.33-23.92c-2.34-14.72,2.31-29.27,6.65-43.17C42.53,20.69,43.61,14.34,47.67,9.7 M288.72,30.73
		c-7.8,3.79-15.54,8.1-21.8,14.17c-5.31,4.99-7.09,12.67-6.6,19.73c5.74,4.47,12.57,7.26,18.28,11.78c2.07,1.29,3.91,3.43,6.42,3.7
		c3.48-0.63,6.82-1.86,10.12-3.11c4.05-1.7,7.89-5.3,7.97-9.97c0.54-9.55-1.12-19.11-3.84-28.24c-0.9-2.93-1.61-6.06-3.5-8.54
		C293.82,28.26,290.86,29.98,288.72,30.73 M59.45,30.24c-2.93,9.56-6.25,19.02-8.49,28.77c-0.78,4.7-1.78,10.36,1.82,14.21
		c3.35,3.66,7.4,6.98,12.11,8.69c2.81-1.38,4.99-3.72,7.52-5.51c5.35-3.83,11.18-6.89,16.87-10.16c2.09-0.88,2.19-3.41,2.29-5.36
		c-0.06-4.74-0.6-9.9-3.79-13.65c-5.83-7.04-13.42-12.51-21.72-16.25C64,29.96,61.68,29.89,59.45,30.24 M75.31,163.15
		c-8.84,2.98-14.33,12.73-13.96,21.82c-0.35,7.46,2.39,15.54,8.65,20.01c3.32,2.7,7.91,3.05,11.94,2.1
		c6.07-1.58,10.17-7.08,12.63-12.55c2.36-4.48,1.75-9.7,1.69-14.58c-0.74-6.46-4.13-13.23-10.28-16.04
		C82.72,162.2,78.79,162.17,75.31,163.15 M264.28,163.14c-4.94,1.64-8.75,5.73-10.68,10.49c-2.15,4.76-1.46,10.12-1.2,15.18
		c1.29,7.64,5.88,15.42,13.4,18.28c5.33,1.73,11.37-0.12,15.28-4.01c5.84-5.57,7.42-14.45,5.68-22.1
		c-0.79-5.68-3.6-11.05-8.03-14.71C274.9,162.8,269.17,161.87,264.28,163.14 M164.36,171.19c-14.38,1.61-28.56,7.97-38.16,19
		c-7.25,8.45-11.59,19.68-10.54,30.89c0.48,6.41,4.33,12.08,9.02,16.24c7.2,5.81,17.11,5.3,25.74,4.02
		c8.6-2.24,17.12-6.47,26.26-4.93c4.64,0.49,8.18,3.76,12.34,5.49c14.16,4.39,31.98-1.78,37.98-15.96
		c2.1-6.53,1.89-13.74,0.39-20.37c-3.03-8.45-7.34-16.77-14.31-22.64c-6.08-5.09-12.99-9.74-20.94-11.15
		C183.01,170.04,173.57,170.28,164.36,171.19z"/>
	<path fill="#FFFFFF" d="M288.72,30.73c2.14-0.75,5.1-2.47,7.05-0.48c1.89,2.48,2.6,5.61,3.5,8.54c2.72,9.13,4.38,18.69,3.84,28.24
		c-0.08,4.67-3.92,8.27-7.97,9.97c-3.3,1.25-6.64,2.48-10.12,3.11c-2.51-0.27-4.35-2.41-6.42-3.7c-5.71-4.52-12.54-7.31-18.28-11.78
		c-0.49-7.06,1.29-14.74,6.6-19.73C273.18,38.83,280.92,34.52,288.72,30.73z"/>
	<path fill="#FFFFFF" d="M59.45,30.24c2.23-0.35,4.55-0.28,6.61,0.74c8.3,3.74,15.89,9.21,21.72,16.25
		c3.19,3.75,3.73,8.91,3.79,13.65c-0.1,1.95-0.2,4.48-2.29,5.36c-5.69,3.27-11.52,6.33-16.87,10.16c-2.53,1.79-4.71,4.13-7.52,5.51
		c-4.71-1.71-8.76-5.03-12.11-8.69c-3.6-3.85-2.6-9.51-1.82-14.21C53.2,49.26,56.52,39.8,59.45,30.24z"/>
	<path fill="#010101" d="M75.31,163.15c3.48-0.98,7.41-0.95,10.67,0.76c6.15,2.81,9.54,9.58,10.28,16.04
		c0.06,4.88,0.67,10.1-1.69,14.58c-2.46,5.47-6.56,10.97-12.63,12.55c-4.03,0.95-8.62,0.6-11.94-2.1c-6.26-4.47-9-12.55-8.65-20.01
		C60.98,175.88,66.47,166.13,75.31,163.15z"/>
	<path fill="#010101" d="M264.28,163.14c4.89-1.27,10.62-0.34,14.45,3.13c4.43,3.66,7.24,9.03,8.03,14.71
		c1.74,7.65,0.16,16.53-5.68,22.1c-3.91,3.89-9.95,5.74-15.28,4.01c-7.52-2.86-12.11-10.64-13.4-18.28
		c-0.26-5.06-0.95-10.42,1.2-15.18C255.53,168.87,259.34,164.78,264.28,163.14z"/>
	<path fill="#FFFFFF" d="M164.36,171.19c9.21-0.91,18.65-1.15,27.78,0.59c7.95,1.41,14.86,6.06,20.94,11.15
		c6.97,5.87,11.28,14.19,14.31,22.64c1.5,6.63,1.71,13.84-0.39,20.37c-6,14.18-23.82,20.35-37.98,15.96c-4.16-1.73-7.7-5-12.34-5.49
		c-9.14-1.54-17.66,2.69-26.26,4.93c-8.63,1.28-18.54,1.79-25.74-4.02c-4.69-4.16-8.54-9.83-9.02-16.24
		c-1.05-11.21,3.29-22.44,10.54-30.89C135.8,179.16,149.98,172.8,164.36,171.19 M149.34,197.29c-5.82,1.2-11.33,5.13-13.34,10.86
		c-1.03,3.62-0.11,8.6,3.78,10.11c9.02,4.21,21.03,0.12,25.62-8.72c0.66-3.3,1.14-7.74-1.91-10.03
		C159.56,196.29,154.07,196.14,149.34,197.29 M185.38,197.42c-3.62,0.77-5.66,4.83-5.06,8.32c0.06,5.96,3.87,11.09,8.6,14.37
		c3.81,2.96,8.87,4.42,13.64,3.33c2.64-0.66,4.99-2.79,5.22-5.61C209.34,206.06,196.89,195,185.38,197.42z"/>
	<path fill="#FE98DA" d="M149.34,197.29c4.73-1.15,10.22-1,14.15,2.22c3.05,2.29,2.57,6.73,1.91,10.03
		c-4.59,8.84-16.6,12.93-25.62,8.72c-3.89-1.51-4.81-6.49-3.78-10.11C138.01,202.42,143.52,198.49,149.34,197.29z"/>
	<path fill="#FE98DA" d="M185.38,197.42c11.51-2.42,23.96,8.64,22.4,20.41c-0.23,2.82-2.58,4.95-5.22,5.61
		c-4.77,1.09-9.83-0.37-13.64-3.33c-4.73-3.28-8.54-8.41-8.6-14.37C179.72,202.25,181.76,198.19,185.38,197.42z"/>
	<path fill="#FE98DA" d="M30.12,274.68c8.1,2.81,14.9,8.44,22.87,11.47c7.98-2.55,14.98-7.53,22.98-10.08
		c0.79,7.87,1.35,15.81,0.91,23.71c-16.17-2.81-32.26-6.11-48.35-9.34C27.76,285.2,27.98,279.59,30.12,274.68z"/>
	<path fill="#FE98DA" d="M271.31,280.97c7.34,1.52,11.21,8.79,17.4,12.36c1.22,0.85,2.75,0.71,4.15,0.52
		c8.88-1.43,17.25-5.19,26.23-6.13c-0.16,5.44-0.71,10.85-1.08,16.28h-7.41c-9.12-1.21-18.35-0.02-27.47-1.1
		c-6.32-0.8-12.7-0.52-19.04-1.1C265.68,294.62,267.97,287.53,271.31,280.97z"/>
</g>
</svg>
